<svg width="1400" height="780" viewBox="0 0 1400 780" fill="none" xmlns="http://www.w3.org/2000/svg">
  <rect width="1400" height="780" rx="36" fill="#08131D"/>
  <rect width="1400" height="780" rx="36" fill="url(#wash)"/>
  <g opacity="0.16" stroke="#9FDBFF" stroke-width="1">
    <path d="M58 164C208 108 318 80 440 80C613 80 740 150 892 150C1034 150 1178 102 1328 44"/>
    <path d="M96 656C231 601 352 574 459 574C629 574 758 644 897 644C1061 644 1192 603 1342 540"/>
  </g>
  <rect x="74" y="88" width="380" height="604" rx="34" fill="rgba(255,255,255,0.04)" stroke="rgba(214,244,255,0.12)"/>
  <rect x="510" y="88" width="380" height="604" rx="34" fill="rgba(255,255,255,0.04)" stroke="rgba(214,244,255,0.12)"/>
  <rect x="946" y="88" width="380" height="604" rx="34" fill="rgba(255,255,255,0.04)" stroke="rgba(214,244,255,0.12)"/>
  <text x="116" y="156" fill="#F4FCFF" font-size="28" font-family="Arial, Helvetica, sans-serif" font-weight="700">Log fast</text>
  <text x="116" y="190" fill="#A0C0D3" font-size="16" font-family="Arial, Helvetica, sans-serif">Four presets and a centered custom entry keep the day moving.</text>
  <rect x="116" y="242" width="90" height="44" rx="22" fill="#16374F" stroke="#6ECFFF" stroke-opacity="0.34"/>
  <rect x="220" y="242" width="90" height="44" rx="22" fill="#16374F" stroke="#6ECFFF" stroke-opacity="0.34"/>
  <circle cx="359" cy="264" r="30" fill="#D7F6FF"/>
  <text x="349" y="272" fill="#143048" font-size="28" font-family="Arial, Helvetica, sans-serif" font-weight="700">+</text>
  <rect x="116" y="306" width="90" height="44" rx="22" fill="#16374F" stroke="#6ECFFF" stroke-opacity="0.34"/>
  <rect x="220" y="306" width="108" height="44" rx="22" fill="#16374F" stroke="#6ECFFF" stroke-opacity="0.34"/>
  <text x="143" y="270" fill="#E8FAFF" font-size="17" font-family="Arial, Helvetica, sans-serif">100</text>
  <text x="247" y="270" fill="#E8FAFF" font-size="17" font-family="Arial, Helvetica, sans-serif">250</text>
  <text x="143" y="334" fill="#E8FAFF" font-size="17" font-family="Arial, Helvetica, sans-serif">500</text>
  <text x="247" y="334" fill="#E8FAFF" font-size="17" font-family="Arial, Helvetica, sans-serif">1000</text>
  <rect x="134" y="404" width="258" height="232" rx="28" fill="url(#panel)"/>
  <rect x="226" y="426" width="74" height="22" rx="10" stroke="#DCF3FF" stroke-width="4"/>
  <rect x="216" y="454" width="94" height="18" rx="9" stroke="#DCF3FF" stroke-width="4"/>
  <rect x="229" y="478" width="68" height="10" rx="5" fill="#DCF3FF" opacity="0.22"/>
  <path d="M196 478H330C342.15 478 352 487.85 352 500V566C352 605.765 319.317 638 275 638C230.683 638 198 605.765 198 566V500C198 487.85 207.85 478 220 478Z" fill="rgba(255,255,255,0.03)" stroke="#DCF3FF" stroke-width="4"/>
  <path d="M208 567C220.667 559.667 233.333 556 246 556C258.667 556 271.333 559.667 284 567C296.667 574.333 309.333 578 322 578V608H208V567Z" fill="#67D4FF"/>
  <path d="M208 565C220.667 557 233.333 553 246 553C258.667 553 271.333 557 284 565C296.667 573 309.333 577 322 577" stroke="#F3FEFF" stroke-width="4" stroke-linecap="round"/>
  <text x="552" y="156" fill="#F4FCFF" font-size="28" font-family="Arial, Helvetica, sans-serif" font-weight="700">Track the day</text>
  <text x="552" y="190" fill="#A0C0D3" font-size="16" font-family="Arial, Helvetica, sans-serif">The bottle fills upward, overflow turns into completed bottles, and the ring holds progress.</text>
  <circle cx="624" cy="296" r="72" stroke="rgba(220,243,255,0.15)" stroke-width="12"/>
  <path d="M576 296C576 269.49 597.49 248 624 248C645.127 248 663.975 261.617 670.886 281.807" stroke="#6ED2FF" stroke-width="12" stroke-linecap="round"/>
  <text x="595" y="305" fill="#F5FCFF" font-size="30" font-family="Arial, Helvetica, sans-serif" font-weight="700">L3</text>
  <rect x="720" y="250" width="118" height="78" rx="22" fill="rgba(255,255,255,0.05)" stroke="rgba(214,244,255,0.12)"/>
  <text x="755" y="294" fill="#6ED2FF" font-size="34" font-family="Arial, Helvetica, sans-serif" font-weight="700">+2</text>
  <text x="743" y="321" fill="#CBE8F8" font-size="13" font-family="Arial, Helvetica, sans-serif">full bottles</text>
  <rect x="552" y="394" width="296" height="216" rx="28" fill="#0B1F31"/>
  <g>
    <rect x="586" y="514" width="26" height="56" rx="10" fill="#295876"/>
    <rect x="622" y="478" width="26" height="92" rx="10" fill="#3D83A9"/>
    <rect x="658" y="446" width="26" height="124" rx="10" fill="#5CCAF8"/>
    <rect x="694" y="502" width="26" height="68" rx="10" fill="#295876"/>
    <rect x="730" y="424" width="26" height="146" rx="10" fill="#73DBFF"/>
    <rect x="766" y="462" width="26" height="108" rx="10" fill="#4AAED8"/>
  </g>
  <text x="986" y="156" fill="#F4FCFF" font-size="28" font-family="Arial, Helvetica, sans-serif" font-weight="700">Tune the feel</text>
  <text x="986" y="190" fill="#A0C0D3" font-size="16" font-family="Arial, Helvetica, sans-serif">Switch units, change the goal, and unlock alternate bottle and water colors.</text>
  <rect x="986" y="244" width="300" height="118" rx="26" fill="#0D2438"/>
  <text x="1018" y="286" fill="#A0C0D3" font-size="14" font-family="Arial, Helvetica, sans-serif">Daily goal</text>
  <text x="1018" y="322" fill="#F5FCFF" font-size="32" font-family="Arial, Helvetica, sans-serif" font-weight="700">2000 mL</text>
  <rect x="1018" y="404" width="124" height="120" rx="24" fill="#0D2438"/>
  <rect x="1158" y="404" width="124" height="120" rx="24" fill="#0D2438"/>
  <text x="1043" y="444" fill="#A0C0D3" font-size="14" font-family="Arial, Helvetica, sans-serif">Bottle</text>
  <text x="1190" y="444" fill="#A0C0D3" font-size="14" font-family="Arial, Helvetica, sans-serif">Water</text>
  <circle cx="1080" cy="480" r="24" fill="#3A73FF"/>
  <circle cx="1220" cy="480" r="24" fill="#49B6FF"/>
  <rect x="1018" y="558" width="264" height="88" rx="24" fill="#0D2438"/>
  <text x="1047" y="596" fill="#F4FCFF" font-size="20" font-family="Arial, Helvetica, sans-serif" font-weight="700">mL / US fl oz</text>
  <text x="1047" y="624" fill="#A0C0D3" font-size="14" font-family="Arial, Helvetica, sans-serif">Stored in mL, displayed in the unit you choose.</text>
  <defs>
    <linearGradient id="wash" x1="70" y1="30" x2="1286" y2="718" gradientUnits="userSpaceOnUse">
      <stop stop-color="#10253A"/>
      <stop offset="0.55" stop-color="#0C1E2F"/>
      <stop offset="1" stop-color="#07121C"/>
    </linearGradient>
    <linearGradient id="panel" x1="154" y1="416" x2="381" y2="646" gradientUnits="userSpaceOnUse">
      <stop stop-color="#183A56"/>
      <stop offset="1" stop-color="#0C1926"/>
    </linearGradient>
  </defs>
</svg>
