<svg width="1200" height="900" viewBox="0 0 1200 900" fill="none" xmlns="http://www.w3.org/2000/svg">
  <rect width="1200" height="900" fill="#071422"/>
  <rect width="1200" height="900" fill="url(#mist)" opacity="0.95"/>
  <g opacity="0.18" stroke="#8FD8FF" stroke-width="1">
    <path d="M0 190C110 150 220 130 330 130C495 130 640 210 785 210C942 210 1048 139 1200 107"/>
    <path d="M0 268C140 225 242 204 356 204C506 204 636 286 782 286C931 286 1063 223 1200 182"/>
    <path d="M0 730C135 676 250 649 378 649C529 649 649 714 786 714C929 714 1065 648 1200 596"/>
  </g>
  <circle cx="1032" cy="184" r="168" fill="url(#glow)" opacity="0.65"/>
  <circle cx="189" cy="709" r="195" fill="url(#glow2)" opacity="0.38"/>
  <rect x="81" y="84" width="1038" height="732" rx="40" fill="rgba(8,23,38,0.54)" stroke="rgba(188,231,255,0.16)" stroke-width="2"/>
  <rect x="116" y="118" width="436" height="664" rx="34" fill="rgba(255,255,255,0.04)" stroke="rgba(224,245,255,0.12)"/>
  <rect x="603" y="118" width="481" height="182" rx="30" fill="rgba(255,255,255,0.05)" stroke="rgba(224,245,255,0.12)"/>
  <rect x="603" y="327" width="481" height="210" rx="30" fill="rgba(255,255,255,0.05)" stroke="rgba(224,245,255,0.12)"/>
  <rect x="603" y="564" width="481" height="178" rx="30" fill="rgba(255,255,255,0.05)" stroke="rgba(224,245,255,0.12)"/>
  <text x="150" y="190" fill="#F5FCFF" font-size="34" font-family="Arial, Helvetica, sans-serif" font-weight="700">Hydrate</text>
  <text x="150" y="230" fill="#A4C4D9" font-size="20" font-family="Arial, Helvetica, sans-serif">Bottle-first water tracking with local history and quiet rewards.</text>
  <rect x="150" y="272" width="138" height="38" rx="19" fill="#133450" stroke="#7BC9FF" stroke-opacity="0.35"/>
  <text x="185" y="296" fill="#C8ECFF" font-size="16" font-family="Arial, Helvetica, sans-serif">Web PWA</text>
  <rect x="301" y="272" width="170" height="38" rx="19" fill="#133450" stroke="#7BC9FF" stroke-opacity="0.35"/>
  <text x="332" y="296" fill="#C8ECFF" font-size="16" font-family="Arial, Helvetica, sans-serif">iOS dev build</text>
  <rect x="184" y="334" width="300" height="370" rx="38" fill="url(#screen)" stroke="rgba(216,244,255,0.18)" stroke-width="2"/>
  <circle cx="334" cy="663" r="6" fill="#B2D7EB" opacity="0.5"/>
  <rect x="296" y="365" width="76" height="26" rx="11" stroke="#DDF3FF" stroke-width="5"/>
  <rect x="285" y="397" width="98" height="24" rx="12" stroke="#DDF3FF" stroke-width="5"/>
  <rect x="301" y="426" width="66" height="10" rx="5" fill="#DDF3FF" opacity="0.22"/>
  <rect x="295" y="444" width="78" height="14" rx="7" stroke="#DDF3FF" stroke-width="5"/>
  <path d="M277 458H391C405.912 458 418 470.088 418 485V594C418 642.586 379.497 684 334 684C288.503 684 250 642.586 250 594V485C250 470.088 262.088 458 277 458Z" fill="rgba(255,255,255,0.03)" stroke="#DDF3FF" stroke-width="5"/>
  <path d="M260 578C275.6 569.2 291.2 564.8 306.8 564.8C322.4 564.8 338 569.2 353.6 578C369.2 586.8 384.8 591.2 400.4 591.2V628H260V578Z" fill="#66D4FF"/>
  <path d="M260 577C275.6 567.667 291.2 563 306.8 563C322.4 563 338 567.667 353.6 577C369.2 586.2 384.8 590.8 400.4 590.8" stroke="#F0FEFF" stroke-width="4" stroke-linecap="round"/>
  <path d="M281 481C289.267 468.333 299.867 462 312.8 462H319V666.3C305.4 671.633 292.733 670.533 281 663V481Z" fill="url(#glass)"/>
  <rect x="468" y="540" width="98" height="92" rx="24" fill="rgba(255,255,255,0.05)" stroke="rgba(224,245,255,0.12)"/>
  <text x="500" y="585" fill="#6AD4FF" font-size="38" font-family="Arial, Helvetica, sans-serif" font-weight="700">+3</text>
  <text x="490" y="613" fill="#C9E5F5" font-size="14" font-family="Arial, Helvetica, sans-serif">Full bottles</text>
  <circle cx="705" cy="209" r="63" stroke="rgba(213,242,255,0.14)" stroke-width="12"/>
  <path d="M663 209C663 185.804 681.804 167 705 167C723.242 167 739.722 178.719 746.397 195.695" stroke="#6ED2FF" stroke-width="12" stroke-linecap="round"/>
  <text x="680" y="216" fill="#F5FCFF" font-size="28" font-family="Arial, Helvetica, sans-serif" font-weight="700">L4</text>
  <text x="794" y="187" fill="#F5FCFF" font-size="18" font-family="Arial, Helvetica, sans-serif" font-weight="700">Level ring</text>
  <text x="794" y="214" fill="#9DBED4" font-size="15" font-family="Arial, Helvetica, sans-serif">Progress stays visible even when the bottle resets.</text>
  <rect x="794" y="237" width="126" height="32" rx="16" fill="rgba(106,212,255,0.1)" stroke="rgba(106,212,255,0.35)"/>
  <text x="824" y="258" fill="#DFF7FF" font-size="14" font-family="Arial, Helvetica, sans-serif">+ coins</text>
  <text x="637" y="376" fill="#F5FCFF" font-size="18" font-family="Arial, Helvetica, sans-serif" font-weight="700">Seven-day pulse</text>
  <text x="637" y="402" fill="#9DBED4" font-size="15" font-family="Arial, Helvetica, sans-serif">Streaks, best days, and recent totals stay close to the bottle view.</text>
  <g>
    <rect x="640" y="442" width="34" height="44" rx="12" fill="#27506E"/>
    <rect x="684" y="418" width="34" height="68" rx="12" fill="#34709D"/>
    <rect x="728" y="392" width="34" height="94" rx="12" fill="#4EB9E8"/>
    <rect x="772" y="448" width="34" height="38" rx="12" fill="#27506E"/>
    <rect x="816" y="352" width="34" height="134" rx="12" fill="#66D4FF"/>
    <rect x="860" y="406" width="34" height="80" rx="12" fill="#34709D"/>
    <rect x="904" y="380" width="34" height="106" rx="12" fill="#57C7F4"/>
  </g>
  <text x="636" y="615" fill="#F5FCFF" font-size="18" font-family="Arial, Helvetica, sans-serif" font-weight="700">Color shop</text>
  <text x="636" y="641" fill="#9DBED4" font-size="15" font-family="Arial, Helvetica, sans-serif">Bottle outlines and water tones unlock with coins earned from logging.</text>
  <rect x="638" y="669" width="88" height="36" rx="18" fill="#19405B"/>
  <rect x="738" y="669" width="88" height="36" rx="18" fill="#19405B"/>
  <rect x="838" y="669" width="88" height="36" rx="18" fill="#19405B"/>
  <rect x="938" y="669" width="88" height="36" rx="18" fill="#19405B"/>
  <circle cx="682" cy="687" r="12" fill="#3A73FF"/>
  <circle cx="782" cy="687" r="12" fill="#00A86B"/>
  <circle cx="882" cy="687" r="12" fill="#49B6FF"/>
  <circle cx="982" cy="687" r="12" fill="#F6B352"/>
  <defs>
    <radialGradient id="glow" cx="0" cy="0" r="1" gradientUnits="userSpaceOnUse" gradientTransform="translate(1032 184) rotate(90) scale(168)">
      <stop stop-color="#6FD5FF"/>
      <stop offset="1" stop-color="#6FD5FF" stop-opacity="0"/>
    </radialGradient>
    <radialGradient id="glow2" cx="0" cy="0" r="1" gradientUnits="userSpaceOnUse" gradientTransform="translate(189 709) rotate(90) scale(195)">
      <stop stop-color="#2A7FFF"/>
      <stop offset="1" stop-color="#2A7FFF" stop-opacity="0"/>
    </radialGradient>
    <linearGradient id="mist" x1="55" y1="34" x2="1076" y2="829" gradientUnits="userSpaceOnUse">
      <stop stop-color="#0D2236"/>
      <stop offset="0.55" stop-color="#10253B"/>
      <stop offset="1" stop-color="#07131F"/>
    </linearGradient>
    <linearGradient id="screen" x1="204" y1="344" x2="484" y2="696" gradientUnits="userSpaceOnUse">
      <stop stop-color="#183753"/>
      <stop offset="1" stop-color="#0A1829"/>
    </linearGradient>
    <linearGradient id="glass" x1="281" y1="462" x2="319" y2="666.3" gradientUnits="userSpaceOnUse">
      <stop stop-color="white" stop-opacity="0.74"/>
      <stop offset="1" stop-color="white" stop-opacity="0.1"/>
    </linearGradient>
  </defs>
</svg>
