<svg xmlns="http://www.w3.org/2000/svg" viewBox="0 0 256 256">
  <defs>
    <linearGradient id="bg" x1="0" y1="0" x2="1" y2="1">
      <stop offset="0" stop-color="#ffd166" />
      <stop offset="1" stop-color="#ff7a59" />
    </linearGradient>
    <linearGradient id="glass" x1="0" y1="0" x2="1" y2="1">
      <stop offset="0" stop-color="#eef7ff" />
      <stop offset="1" stop-color="#8bc5ff" />
    </linearGradient>
  </defs>

  <rect width="256" height="256" rx="52" fill="url(#bg)" />
  <circle cx="78" cy="190" r="84" fill="#ffffff" opacity="0.12" />
  <circle cx="190" cy="62" r="52" fill="#ffffff" opacity="0.14" />

  <g transform="translate(144 72)">
    <circle cx="0" cy="0" r="48" fill="#4f9cff" />
    <path d="M-24 -6 C-36 -20 -25 -34 -8 -32 C5 -30 16 -17 8 -8 C0 0 -8 5 -18 6 Z" fill="#56b87a" />
    <path d="M4 8 C18 -3 30 0 31 14 C26 26 13 30 2 25 C-4 18 -1 12 4 8 Z" fill="#56b87a" />
    <path d="M-12 18 C-2 12 8 17 11 26 C6 34 -7 34 -15 28 Z" fill="#56b87a" />
    <ellipse cx="0" cy="0" rx="44" ry="18" fill="none" stroke="#ffffff" stroke-opacity="0.45" stroke-width="3" />
    <ellipse cx="0" cy="0" rx="20" ry="47" fill="none" stroke="#ffffff" stroke-opacity="0.45" stroke-width="3" />
    <path d="M-45 0 H45" stroke="#ffffff" stroke-opacity="0.4" stroke-width="3" stroke-linecap="round" />
    <circle cx="0" cy="0" r="48" fill="none" stroke="#ffffff" stroke-opacity="0.45" stroke-width="4" />
  </g>

  <g transform="translate(96 106)">
    <circle cx="0" cy="0" r="54" fill="#ffffff" opacity="0.94" />
    <circle cx="0" cy="0" r="38" fill="url(#glass)" />
    <rect x="-18" y="-18" width="16" height="16" rx="4" fill="#ffffff" opacity="0.75" />
    <rect x="2" y="-18" width="16" height="16" rx="4" fill="#ffffff" opacity="0.55" />
    <rect x="-18" y="2" width="16" height="16" rx="4" fill="#ffffff" opacity="0.55" />
    <rect x="2" y="2" width="16" height="16" rx="4" fill="#ffffff" opacity="0.75" />
    <path d="M-16 -2 H18 M0 -18 V18" stroke="#d8ecff" stroke-width="2.5" stroke-linecap="round" />
    <circle cx="0" cy="0" r="54" fill="none" stroke="#1f1b2e" stroke-opacity="0.18" stroke-width="4" />
  </g>

  <g transform="translate(150 58) rotate(45)">
    <rect x="0" y="0" width="76" height="24" rx="12" fill="#1f1b2e" />
    <rect x="8" y="4" width="54" height="6" rx="3" fill="#ffffff" opacity="0.18" />
  </g>

  <circle cx="77" cy="84" r="12" fill="#ffffff" opacity="0.35" />
</svg>
